<?xml version="1.0" encoding="UTF-8" standalone="no"?>
<!-- Created with Inkscape (http://www.inkscape.org/) -->

<svg
   width="64.632881mm"
   height="43.779575mm"
   viewBox="0 0 64.632881 43.779575"
   version="1.1"
   id="svg1"
   inkscape:version="1.4 (86a8ad7, 2024-10-11)"
   sodipodi:docname="bit-list-logo.svg"
   xmlns:inkscape="http://www.inkscape.org/namespaces/inkscape"
   xmlns:sodipodi="http://sodipodi.sourceforge.net/DTD/sodipodi-0.dtd"
   xmlns="http://www.w3.org/2000/svg"
   xmlns:svg="http://www.w3.org/2000/svg">
  <sodipodi:namedview
     id="namedview1"
     pagecolor="#ffffff"
     bordercolor="#000000"
     borderopacity="0.25"
     inkscape:showpageshadow="2"
     inkscape:pageopacity="0.0"
     inkscape:pagecheckerboard="0"
     inkscape:deskcolor="#d1d1d1"
     inkscape:document-units="mm"
     inkscape:zoom="4.78"
     inkscape:cx="122.28033"
     inkscape:cy="82.740586"
     inkscape:window-width="3840"
     inkscape:window-height="2054"
     inkscape:window-x="-11"
     inkscape:window-y="-11"
     inkscape:window-maximized="1"
     inkscape:current-layer="g672" />
  <defs
     id="defs1" />
  <g
     inkscape:label="Layer 1"
     inkscape:groupmode="layer"
     id="layer1"
     transform="translate(-50.270834,-108.45435)">
    <g
       id="g91"
       transform="matrix(-0.26458333,0,0,0.26458333,148.25325,76.155053)">
		
		
		
		
		<g
   id="g1">
  <path
     d="m 250.131,187.314 c 0.089,-2.086 1.428,-4.236 3.475,-5.001 2.747,-1.027 5.547,-1.91 8.318,-2.873 0.428,-0.149 1.011,-0.284 1.202,-0.612 1.571,-2.696 4.391,-3.289 6.995,-4.167 3.984,-1.343 8.024,-2.519 12.029,-3.799 5.157,-1.647 10.291,-3.368 15.46,-4.974 2.88,-0.895 5.831,-1.556 8.713,-2.444 2.74,-0.844 5.426,-1.862 8.146,-2.775 3.091,-1.037 6.179,-2.088 9.302,-3.017 0.589,-0.175 1.448,0.012 1.99,0.346 0.861,0.529 1.511,0.432 2.432,0.115 2.098,-0.723 4.265,-1.272 6.433,-1.759 2.744,-0.616 4.398,0.3 5.438,2.954 0.609,1.555 1.085,3.162 1.621,4.745 1.071,3.162 2.086,6.345 3.23,9.48 0.982,2.691 2.165,5.309 3.158,7.997 1.047,2.834 1.994,5.706 2.949,8.573 1.332,3.996 2.626,8.005 3.946,12.005 1.996,6.047 3.997,12.093 6.004,18.137 2.459,7.405 4.92,14.808 7.399,22.206 0.201,0.6 0.41,1.31 0.853,1.695 1.244,1.08 1.112,2.268 1.087,3.794 -0.038,2.302 -1.409,3.258 -3.005,3.782 -5.043,1.655 -9.887,3.885 -15.093,5.084 -1.806,0.416 -3.481,1.403 -5.214,2.134 -0.294,0.124 -0.565,0.347 -0.868,0.398 -4.997,0.841 -9.304,3.577 -14.051,5.102 -6.889,2.214 -13.608,4.917 -20.604,6.838 -5.665,1.556 -11.187,3.628 -16.826,5.291 -4.028,1.187 -8.132,2.132 -12.233,3.043 -0.729,0.162 -1.821,-0.141 -2.379,-0.64 -0.982,-0.879 -1.86,-1.98 -2.467,-3.152 -3.06,-5.899 -4.898,-12.241 -6.637,-18.623 -1.106,-4.06 -2.32,-8.094 -3.625,-12.094 -0.863,-2.646 -2.048,-5.186 -2.954,-7.819 -2.203,-6.398 -4.418,-12.795 -6.45,-19.248 -1.288,-4.092 -2.259,-8.285 -3.367,-12.434 -0.799,-2.993 -1.644,-5.974 -2.369,-8.985 -0.742,-3.085 -1.363,-6.2 -2.038,-9.303 z m 42.855,86.915 c 2.521,0.26 2.962,-1.657 3.92,-3.474 0.346,0.925 0.539,1.441 0.7,1.873 2.054,0.342 3.06,-1.064 4.161,-2.503 0.337,0.613 0.55,1 0.68,1.236 2.121,-0.158 3.582,-1.155 4.251,-3.162 0.022,-0.067 0.259,-0.063 0.395,-0.092 0.124,0.576 0.247,1.153 0.366,1.709 2.032,-0.144 3.341,-0.881 3.625,-2.925 0.064,-0.46 0.469,-0.873 0.72,-1.314 1.501,0.725 -0.085,1.885 0.696,2.669 2.336,0.109 3.776,-1.033 4.313,-3.455 0.151,0.052 0.301,0.104 0.452,0.157 0.12,0.639 0.239,1.279 0.347,1.857 2.042,0.067 2.813,-1.46 3.778,-3.217 0.37,0.857 0.585,1.353 0.738,1.708 2.664,0.38 2.979,-1.992 4.22,-3.51 0.372,0.736 0.605,1.196 0.818,1.616 1.571,0.054 2.413,-0.629 2.882,-2.063 0.233,-0.714 0.184,-1.801 1.489,-2.102 -0.08,1.004 -0.149,1.875 -0.233,2.926 2.245,-0.735 4.512,-0.945 5.009,-3.658 1.991,1.732 3.376,1.319 4.267,-0.968 0.329,-0.844 0.288,-2.032 1.694,-2.535 -0.102,1.041 -0.181,1.857 -0.285,2.92 1.332,-0.362 2.706,-0.377 3.53,-1.058 0.87,-0.718 1.216,-2.072 1.902,-3.357 0.111,0.992 0.194,1.744 0.28,2.51 2.069,-0.46 3.838,-1.078 4.009,-3.519 0.013,-0.188 0.421,-0.349 0.848,-0.679 0.172,0.919 0.295,1.581 0.44,2.354 1.028,-0.358 2.17,-0.475 2.887,-1.088 0.685,-0.586 0.929,-1.688 1.555,-2.942 0.42,0.89 0.655,1.388 0.904,1.916 2.205,-0.41 4.422,-0.728 5.319,-3.765 0.511,0.685 0.786,1.053 1.075,1.439 2.324,-0.793 3.013,-1.929 2.247,-4.189 -0.894,-2.638 -2.049,-5.189 -2.907,-7.838 -1.792,-5.531 -3.452,-11.105 -5.19,-16.654 -1.12,-3.575 -2.242,-7.15 -3.434,-10.702 -2.076,-6.182 -4.217,-12.341 -6.312,-18.517 -0.996,-2.937 -1.894,-5.909 -2.935,-8.83 -0.961,-2.697 -2.097,-5.332 -3.078,-8.023 -1.035,-2.839 -1.955,-5.72 -2.972,-8.565 -0.671,-1.876 -1.468,-3.707 -2.127,-5.586 -0.481,-1.371 -1.754,-1.939 -2.79,-1.812 -2.807,0.343 -5.679,0.727 -8.272,2.48 0.634,2.277 1.394,4.463 1.842,6.711 1.593,8.007 4.802,15.521 7,23.341 0.429,1.527 0.923,3.038 1.443,4.537 0.758,2.182 1.601,4.335 2.348,6.521 1.212,3.547 2.301,7.138 3.585,10.658 1.021,2.797 0.61,3.996 -2.169,4.949 -1.876,0.644 -3.771,1.258 -5.694,1.734 -5.009,1.242 -9.615,3.616 -14.58,5.014 -4.898,1.379 -9.659,3.24 -14.523,4.752 -4.254,1.322 -8.581,2.408 -12.849,3.685 -2.951,0.883 -5.895,1.693 -9.013,1.596 -2.232,-0.069 -3.188,-0.753 -3.809,-2.867 -0.562,-1.912 -1.041,-3.848 -1.617,-5.756 -1.381,-4.575 -2.78,-9.145 -4.203,-13.708 -1.234,-3.957 -2.505,-7.903 -3.767,-11.851 -1.334,-4.175 -2.691,-8.342 -4.007,-12.522 -0.639,-2.029 -1.208,-4.079 -1.863,-6.306 -4.421,0.733 -8.655,1.338 -12.367,4.501 0.83,0.194 1.244,0.291 1.598,0.374 -0.333,1.183 -0.649,2.238 -0.906,3.306 -0.035,0.148 0.226,0.366 0.353,0.557 0.5,-0.41 0.953,-0.781 1.697,-1.391 -0.167,2.275 -1.826,3.892 -1.206,6.2 0.67,-0.856 1.156,-1.476 1.936,-2.472 0.166,2.718 -1.555,4.762 -0.745,7.214 0.758,-0.617 1.37,-1.115 1.981,-1.612 -0.056,1.252 -0.489,2.249 -0.804,3.283 -0.449,1.477 -0.331,1.849 0.688,3.083 0.656,-1.113 0.656,-1.113 1.636,-1.687 0.265,2.391 -2.508,4.398 -0.889,6.952 0.469,-0.193 0.911,-0.374 1.338,-0.549 -0.002,1.814 -0.005,3.456 -0.007,5.136 0.627,-0.121 1.132,-0.218 1.756,-0.339 -0.226,1.579 -0.978,2.967 -0.388,4.502 0.658,-0.478 1.202,-0.873 2.009,-1.459 -0.055,2.435 -1.925,4.406 -0.107,6.617 0.723,-0.935 1.353,-1.75 2.285,-2.955 0.283,2.452 -1.176,3.715 -1.754,5.271 0.215,0.766 0.424,1.508 0.701,2.495 0.564,-0.731 0.976,-1.266 1.391,-1.803 1.29,1.957 -1.496,3.925 0.522,5.911 0.368,-0.657 0.703,-1.254 1.037,-1.851 0.765,2.279 -1.336,4.108 0.109,6.083 1.091,-0.44 0.52,-2.166 1.992,-2.194 0.517,2.233 -1.872,4.177 -0.54,6.527 0.558,-0.636 1.013,-1.155 1.533,-1.748 1.005,1.977 -1.605,3.774 0.174,5.536 0.496,-0.566 0.956,-1.092 1.416,-1.617 0.157,1.21 -0.059,2.204 -0.224,3.206 -0.144,0.872 -1.237,1.841 0.262,2.68 0.354,-0.537 0.678,-1.027 1.184,-1.796 0.531,1.76 0.02,3.101 -0.418,4.377 -0.343,0.997 -0.216,1.669 0.588,2.275 0.675,-0.58 0.638,-1.828 2.003,-1.955 -0.308,1.323 -0.538,2.463 -0.843,3.583 -0.333,1.222 -0.559,2.403 0.316,3.512 0.517,-0.43 0.945,-0.787 1.72,-1.432 -0.324,2.522 -1.924,4.595 -0.211,6.727 0.586,-0.603 1.076,-1.108 1.909,-1.966 -0.132,2.429 -1.591,4.258 -0.474,6.277 0.623,-0.273 1.148,-0.503 2.03,-0.889 -0.209,1.947 -1.814,3.597 -0.219,5.215 0.487,-0.195 1.003,-0.402 1.847,-0.741 -0.207,1.1 -0.469,1.868 -0.451,2.63 0.01,0.438 0.392,1.114 0.753,1.229 0.367,0.118 1.049,-0.201 1.345,-0.543 0.341,-0.394 0.411,-1.023 0.6,-1.549 0.222,-0.62 0.261,-1.391 1.343,-1.561 -0.141,1.122 -0.265,2.099 -0.386,3.059 2.367,0.794 2.805,-1.343 4.082,-2.59 0.193,0.734 0.32,1.217 0.455,1.726 1.54,0.242 2.637,-0.153 3.051,-1.851 0.092,-0.379 0.623,-0.652 1.356,-1.37 -0.087,1.121 -0.125,1.622 -0.163,2.12 z m -27.068,-95.447 c 0.423,1.457 0.758,2.584 1.076,3.716 1.077,3.832 2.042,7.7 3.242,11.493 2.333,7.367 4.842,14.678 7.19,22.04 1.621,5.082 3.071,10.219 4.652,15.315 0.509,1.641 1.027,2.045 2.842,1.872 2.523,-0.241 5.088,-0.492 7.518,-1.162 5.672,-1.563 11.278,-3.367 16.904,-5.097 4.717,-1.45 9.5,-2.73 14.115,-4.455 5.516,-2.061 10.967,-4.276 16.67,-5.799 1.679,-0.448 1.982,-1.127 1.445,-2.81 -2.179,-6.829 -4.345,-13.661 -6.567,-20.476 -2.147,-6.584 -4.438,-13.123 -6.505,-19.732 -1.115,-3.568 -1.89,-7.242 -2.822,-10.867 -0.63,-2.45 -1.144,-2.732 -3.448,-1.931 -0.297,0.103 -0.615,0.141 -0.918,0.227 -4.042,1.152 -8.099,2.255 -12.12,3.478 -2.87,0.873 -5.675,1.956 -8.537,2.859 -5.003,1.58 -10.037,3.065 -15.041,4.644 -4.542,1.433 -9.069,2.916 -13.587,4.424 -1.952,0.653 -3.864,1.426 -6.109,2.261 z"
     id="path87" />
  <path
     fill="#a1f7a7"
     d="m 292.986,274.229 c 0.038,-0.498 0.075,-0.999 0.16,-2.119 -0.733,0.717 -1.263,0.99 -1.356,1.37 -0.413,1.697 -1.51,2.093 -3.051,1.851 -0.134,-0.51 -0.261,-0.992 -0.455,-1.726 -1.277,1.247 -1.715,3.384 -4.082,2.59 0.121,-0.959 0.244,-1.937 0.386,-3.059 -1.081,0.17 -1.121,0.941 -1.343,1.561 -0.188,0.527 -0.258,1.156 -0.6,1.549 -0.297,0.342 -0.978,0.661 -1.345,0.543 -0.36,-0.116 -0.742,-0.791 -0.753,-1.229 -0.018,-0.762 0.244,-1.53 0.451,-2.63 -0.844,0.339 -1.36,0.546 -1.847,0.741 -1.595,-1.617 0.01,-3.268 0.219,-5.215 -0.882,0.386 -1.407,0.616 -2.03,0.889 -1.116,-2.019 0.343,-3.848 0.474,-6.277 -0.833,0.858 -1.323,1.363 -1.909,1.966 -1.713,-2.131 -0.113,-4.205 0.211,-6.727 -0.775,0.645 -1.203,1.001 -1.72,1.432 -0.875,-1.109 -0.65,-2.29 -0.316,-3.512 0.305,-1.12 0.535,-2.26 0.843,-3.583 -1.365,0.127 -1.328,1.375 -2.003,1.955 -0.804,-0.606 -0.931,-1.277 -0.588,-2.275 0.438,-1.276 0.949,-2.617 0.418,-4.377 -0.507,0.768 -0.83,1.259 -1.184,1.796 -1.499,-0.838 -0.406,-1.807 -0.262,-2.68 0.165,-1.002 0.381,-1.996 0.224,-3.206 -0.46,0.525 -0.92,1.051 -1.416,1.617 -1.779,-1.762 0.831,-3.559 -0.174,-5.536 -0.52,0.593 -0.975,1.111 -1.533,1.748 -1.332,-2.35 1.057,-4.294 0.54,-6.527 -1.472,0.028 -0.901,1.754 -1.992,2.194 -1.444,-1.975 0.656,-3.804 -0.109,-6.083 -0.334,0.597 -0.669,1.194 -1.037,1.851 -2.018,-1.986 0.768,-3.954 -0.522,-5.911 -0.414,0.537 -0.827,1.072 -1.391,1.803 -0.277,-0.987 -0.486,-1.729 -0.701,-2.495 0.578,-1.556 2.037,-2.819 1.754,-5.271 -0.932,1.205 -1.562,2.02 -2.285,2.955 -1.819,-2.211 0.052,-4.182 0.107,-6.617 -0.807,0.586 -1.351,0.981 -2.009,1.459 -0.59,-1.535 0.162,-2.923 0.388,-4.502 -0.624,0.121 -1.129,0.218 -1.756,0.339 0.002,-1.68 0.004,-3.323 0.007,-5.136 -0.427,0.175 -0.868,0.357 -1.338,0.549 -1.619,-2.554 1.154,-4.561 0.889,-6.952 -0.98,0.574 -0.98,0.574 -1.636,1.687 -1.018,-1.235 -1.137,-1.606 -0.688,-3.083 0.315,-1.034 0.748,-2.031 0.804,-3.283 -0.612,0.498 -1.223,0.995 -1.981,1.612 -0.81,-2.453 0.911,-4.496 0.745,-7.214 -0.78,0.996 -1.265,1.616 -1.936,2.472 -0.62,-2.308 1.039,-3.925 1.206,-6.2 -0.744,0.61 -1.197,0.981 -1.697,1.391 -0.127,-0.191 -0.389,-0.41 -0.353,-0.557 0.257,-1.069 0.573,-2.123 0.906,-3.306 -0.354,-0.083 -0.768,-0.18 -1.598,-0.374 3.713,-3.164 7.947,-3.769 12.367,-4.501 0.655,2.226 1.224,4.277 1.863,6.306 1.316,4.18 2.674,8.347 4.007,12.522 1.262,3.948 2.533,7.894 3.767,11.851 1.422,4.563 2.822,9.132 4.203,13.708 0.576,1.908 1.055,3.844 1.617,5.756 0.621,2.115 1.577,2.798 3.809,2.867 3.119,0.097 6.063,-0.714 9.013,-1.596 4.269,-1.277 8.595,-2.363 12.849,-3.685 4.864,-1.512 9.624,-3.373 14.523,-4.752 4.964,-1.397 9.571,-3.772 14.58,-5.014 1.923,-0.477 3.818,-1.091 5.694,-1.734 2.779,-0.953 3.189,-2.153 2.169,-4.949 -1.285,-3.52 -2.373,-7.111 -3.585,-10.658 -0.747,-2.186 -1.59,-4.339 -2.348,-6.521 -0.521,-1.499 -1.014,-3.01 -1.443,-4.537 -2.198,-7.82 -5.407,-15.334 -7,-23.341 -0.447,-2.248 -1.208,-4.435 -1.842,-6.711 2.594,-1.753 5.466,-2.137 8.272,-2.48 1.037,-0.127 2.309,0.441 2.79,1.812 0.66,1.879 1.457,3.71 2.127,5.586 1.017,2.846 1.936,5.727 2.972,8.565 0.981,2.691 2.117,5.326 3.078,8.023 1.041,2.921 1.939,5.892 2.935,8.83 2.095,6.176 4.236,12.335 6.312,18.517 1.193,3.551 2.314,7.126 3.434,10.702 1.738,5.549 3.398,11.123 5.19,16.654 0.858,2.648 2.013,5.2 2.907,7.838 0.766,2.26 0.077,3.396 -2.247,4.189 -0.288,-0.386 -0.563,-0.754 -1.075,-1.439 -0.897,3.038 -3.114,3.356 -5.319,3.765 -0.249,-0.528 -0.484,-1.026 -0.904,-1.916 -0.627,1.254 -0.87,2.356 -1.555,2.942 -0.717,0.613 -1.859,0.729 -2.887,1.088 -0.144,-0.772 -0.268,-1.434 -0.44,-2.354 -0.427,0.33 -0.835,0.491 -0.848,0.679 -0.171,2.441 -1.94,3.06 -4.009,3.519 -0.085,-0.765 -0.169,-1.517 -0.28,-2.51 -0.687,1.286 -1.032,2.639 -1.902,3.357 -0.825,0.681 -2.199,0.696 -3.53,1.058 0.104,-1.063 0.183,-1.879 0.285,-2.92 -1.405,0.503 -1.365,1.691 -1.694,2.535 -0.892,2.287 -2.277,2.701 -4.267,0.968 -0.497,2.713 -2.764,2.923 -5.009,3.658 0.083,-1.05 0.153,-1.922 0.233,-2.926 -1.305,0.301 -1.256,1.388 -1.489,2.102 -0.469,1.434 -1.311,2.117 -2.882,2.063 -0.212,-0.42 -0.445,-0.88 -0.818,-1.616 -1.241,1.519 -1.556,3.89 -4.22,3.51 -0.153,-0.354 -0.367,-0.851 -0.738,-1.708 -0.965,1.758 -1.735,3.284 -3.778,3.217 -0.108,-0.578 -0.228,-1.217 -0.347,-1.857 -0.151,-0.052 -0.301,-0.104 -0.452,-0.157 -0.537,2.422 -1.977,3.564 -4.313,3.455 -0.782,-0.784 0.805,-1.944 -0.696,-2.669 -0.251,0.441 -0.656,0.854 -0.72,1.314 -0.283,2.044 -1.593,2.78 -3.625,2.925 -0.119,-0.556 -0.243,-1.133 -0.366,-1.709 -0.136,0.029 -0.373,0.025 -0.396,0.092 -0.669,2.007 -2.13,3.004 -4.251,3.162 -0.13,-0.236 -0.343,-0.623 -0.68,-1.236 -1.101,1.439 -2.107,2.845 -4.161,2.503 -0.161,-0.431 -0.354,-0.948 -0.7,-1.873 -0.954,1.815 -1.395,3.733 -3.916,3.473 z"
     id="path88"
     style="fill:#5555ff" />
  <path
     fill="#ebebeb"
     d="m 265.918,178.782 c 2.245,-0.835 4.157,-1.608 6.109,-2.26 4.518,-1.509 9.045,-2.991 13.587,-4.424 5.004,-1.579 10.037,-3.064 15.041,-4.644 2.861,-0.903 5.667,-1.986 8.537,-2.859 4.021,-1.223 8.078,-2.326 12.12,-3.478 0.303,-0.086 0.622,-0.124 0.918,-0.227 2.304,-0.801 2.818,-0.519 3.448,1.931 0.932,3.625 1.707,7.299 2.822,10.867 2.066,6.609 4.358,13.147 6.505,19.732 2.222,6.815 4.388,13.647 6.567,20.476 0.537,1.683 0.233,2.362 -1.445,2.81 -5.703,1.523 -11.154,3.738 -16.67,5.799 -4.616,1.725 -9.398,3.004 -14.115,4.455 -5.626,1.73 -11.232,3.534 -16.904,5.097 -2.43,0.67 -4.995,0.92 -7.518,1.162 -1.815,0.174 -2.333,-0.231 -2.842,-1.872 -1.581,-5.095 -3.03,-10.232 -4.652,-15.315 -2.349,-7.362 -4.858,-14.673 -7.19,-22.04 -1.201,-3.793 -2.166,-7.661 -3.242,-11.493 -0.318,-1.133 -0.653,-2.26 -1.076,-3.717 z m 63.94,27.736 c -0.199,-1.261 -0.243,-2.472 -0.592,-3.587 -1.302,-4.164 -2.707,-8.295 -4.065,-12.442 -0.52,-1.589 -1.017,-3.186 -1.523,-4.78 -1.35,-4.248 -2.689,-8.5 -4.052,-12.744 -0.585,-1.821 -0.626,-1.956 -2.515,-1.701 -1.878,0.253 -3.759,0.697 -5.552,1.309 -1.68,0.574 -2.035,1.485 -1.652,3.199 1.182,5.284 2.729,10.451 4.509,15.573 1.485,4.271 2.406,8.736 3.672,13.088 0.544,1.868 0.55,3.942 1.883,5.633 3.558,-0.494 6.752,-1.761 9.887,-3.548 z"
     id="path89" />
  <path
     d="m 329.858,206.518 c -3.134,1.787 -6.329,3.055 -9.886,3.549 -1.333,-1.691 -1.339,-3.765 -1.883,-5.633 -1.266,-4.351 -2.187,-8.816 -3.672,-13.088 -1.781,-5.122 -3.328,-10.289 -4.509,-15.573 -0.384,-1.715 -0.029,-2.626 1.652,-3.199 1.794,-0.612 3.674,-1.056 5.552,-1.309 1.89,-0.255 1.931,-0.119 2.515,1.701 1.363,4.244 2.702,8.496 4.052,12.744 0.506,1.594 1.003,3.191 1.523,4.78 1.358,4.147 2.763,8.278 4.065,12.442 0.347,1.114 0.392,2.325 0.591,3.586 z m -18.169,-31.87 c -0.001,0.533 -0.051,0.856 0.006,1.159 0.925,4.944 2.392,9.734 4.028,14.485 1.007,2.923 1.883,5.896 2.692,8.881 0.766,2.824 1.367,5.693 2.039,8.539 3.006,0.584 4.938,-1.535 7.668,-2.039 -0.353,-1.605 -0.546,-3.011 -0.978,-4.339 -1.106,-3.404 -2.359,-6.761 -3.48,-10.161 -1.962,-5.954 -3.87,-11.926 -5.818,-17.946 -2.232,-0.258 -4.136,0.44 -6.157,1.421 z"
     id="path90" />
  <path
     fill="#a1f7a7"
     d="m 311.689,174.648 c 2.021,-0.981 3.924,-1.679 6.157,-1.421 1.948,6.02 3.856,11.992 5.818,17.946 1.121,3.4 2.374,6.757 3.48,10.161 0.432,1.328 0.625,2.734 0.978,4.339 -2.73,0.504 -4.661,2.623 -7.668,2.039 -0.673,-2.846 -1.274,-5.715 -2.039,-8.539 -0.809,-2.985 -1.685,-5.958 -2.692,-8.881 -1.636,-4.751 -3.103,-9.541 -4.028,-14.485 -0.056,-0.303 -0.006,-0.626 -0.006,-1.159 z"
     id="path91"
     style="fill:#5555ff" />
</g>

	</g>
    <g
       id="g672"
       transform="matrix(-0.26458333,0,0,0.26458333,524.94868,-249.92964)">
		
		
		
		
		
		
		
		
		
		
		
		
		
		
		
		<g
   id="g2">
  <path
     d="m 1601.218,1423.835 c 0.64,-1.993 1.222,-3.694 1.731,-5.418 1.009,-3.417 1.93,-6.86 2.977,-10.265 1.066,-3.467 2.16,-6.931 3.388,-10.343 1.32,-3.667 2.825,-7.266 4.213,-10.908 0.319,-0.836 0.413,-1.759 0.741,-2.591 0.911,-2.315 1.93,-4.587 2.833,-6.905 0.935,-2.401 1.769,-4.841 2.678,-7.252 0.817,-2.169 2.439,-3.682 4.317,-4.899 0.544,-0.353 1.349,-0.354 2.044,-0.417 3.086,-0.28 6.199,-0.549 9.23,0.264 3.003,0.805 5.954,1.806 8.917,2.755 1.271,0.407 2.515,0.902 3.836,1.38 2.441,-0.766 5.119,-1.619 7.807,-2.437 0.369,-0.112 0.792,-0.059 1.19,-0.061 1.739,-0.01 1.901,-0.24 2.303,-1.959 0.33,-1.409 0.795,-2.811 1.405,-4.121 0.317,-0.681 0.969,-1.153 2.001,-0.987 1.364,0.22 2.725,0.235 3.858,1.215 0.237,0.205 0.766,0.073 0.954,0.084 1.085,-1.418 1.944,-2.838 3.102,-3.947 0.779,-0.746 2.07,-0.927 2.972,-1.582 1.891,-1.375 4.024,-0.965 5.78,-0.328 1.917,0.695 3.135,2.602 3.34,4.776 0.154,1.635 0.057,3.296 0.022,4.945 -0.015,0.684 0.059,1.149 0.812,1.476 1.358,0.59 2.653,1.11 4.198,1.261 1.21,0.118 2.411,1.037 3.451,1.819 0.363,0.273 0.458,1.269 0.289,1.815 -0.491,1.584 -0.583,3.275 -1.614,4.751 -0.356,0.51 0.217,1.868 0.655,2.683 0.618,1.148 1.482,2.17 2.291,3.207 0.281,0.36 0.668,0.728 1.084,0.879 2.279,0.831 4.577,1.609 6.878,2.38 2.069,0.693 4.153,1.342 6.224,2.032 3.208,1.069 6.45,2.16 8.83,4.693 1.322,1.407 2.549,2.914 2.753,5.099 0.133,1.426 0.068,2.497 -0.763,3.73 -0.87,1.291 -1.28,2.888 -1.923,4.337 -1.443,3.251 -2.994,6.459 -4.329,9.753 -0.815,2.011 -1.289,4.158 -1.959,6.229 -0.323,0.996 -0.767,1.951 -1.119,2.939 -0.446,1.251 -0.831,2.524 -1.282,3.773 -0.578,1.602 -1.179,3.196 -1.802,4.782 -0.946,2.407 -1.942,4.794 -2.872,7.207 -0.798,2.071 -1.521,4.171 -2.298,6.251 -0.327,0.875 -0.689,1.739 -1.062,2.596 -0.661,1.523 -1.61,2.98 -1.948,4.57 -0.414,1.95 -1.358,3.648 -1.966,5.49 -1.112,3.365 -2.051,6.787 -3.183,10.144 -0.671,1.989 -1.693,3.861 -2.345,5.855 -0.921,2.818 -1.63,5.704 -2.465,8.55 -0.186,0.636 -0.517,1.229 -0.786,1.84 -0.441,0.999 -0.901,1.99 -1.324,2.997 -0.421,1.001 -0.851,2.002 -1.2,3.029 -0.59,1.736 -1.109,3.495 -1.676,5.239 -0.797,2.452 -1.559,4.918 -2.433,7.343 -0.727,2.018 -1.682,3.955 -2.375,5.983 -0.668,1.957 -1.115,3.988 -1.692,5.977 -0.185,0.637 -0.497,1.236 -0.714,1.866 -0.452,1.308 -1.287,1.936 -2.734,1.956 -0.842,0.012 -1.698,0.683 -2.513,0.619 -1.177,-0.092 -2.327,-0.567 -3.48,-0.908 -0.657,-0.194 -1.284,-0.585 -1.948,-0.65 -2.735,-0.268 -4.944,-1.954 -7.497,-2.682 -2.171,-0.619 -4.375,-1.121 -6.558,-1.696 -1.098,-0.289 -2.182,-0.631 -3.275,-0.941 -2.01,-0.572 -4.028,-1.121 -6.032,-1.712 -1.706,-0.503 -3.389,-1.087 -5.1,-1.573 -1.656,-0.47 -3.355,-0.793 -4.998,-1.301 -3.172,-0.98 -6.329,-2.014 -9.472,-3.086 -2.419,-0.825 -4.787,-1.805 -7.216,-2.6 -1.844,-0.604 -3.761,-0.985 -5.621,-1.546 -1.263,-0.381 -2.483,-0.905 -3.724,-1.359 -1.784,-0.652 -3.601,-1.225 -5.347,-1.964 -2.61,-1.105 -5.198,-2.272 -7.744,-3.516 -2.131,-1.041 -4.305,-2.063 -6.245,-3.405 -1.853,-1.281 -3.687,-2.629 -4.499,-5.047 -0.593,-1.768 -0.559,-3.376 -0.127,-5.062 0.725,-2.832 1.708,-5.562 2.852,-8.269 1.32,-3.12 2.112,-6.459 3.25,-9.662 0.53,-1.491 1.35,-2.879 2.01,-4.326 0.239,-0.523 0.439,-1.073 0.578,-1.63 0.501,-2.008 0.987,-4.021 1.439,-6.04 0.222,-0.99 -0.345,-1.775 -0.864,-2.518 -1.976,-2.828 -4.002,-5.621 -5.978,-8.448 -1.116,-1.597 -2.091,-3.297 -3.275,-4.84 -1.778,-2.318 -3.691,-4.533 -5.529,-6.806 -0.318,-0.394 -0.536,-0.867 -0.824,-1.287 -3.337,-4.868 -6.676,-9.735 -10.019,-14.598 -1.557,-2.265 -3.096,-4.542 -4.7,-6.773 -0.722,-1.005 -1.653,-1.769 -2.922,-2.106 -1.394,-0.371 -2.324,-1.108 -2.391,-2.804 -0.034,-0.858 -0.666,-1.745 -1.177,-2.52 -1.026,-1.556 -2.292,-2.968 -3.205,-4.582 -0.995,-1.759 -0.488,-3.485 0.669,-5.088 1.481,-2.051 3.344,-3.666 5.401,-5.1 1.172,-0.817 2.193,-1.923 3.461,-2.515 2.245,-1.047 4.61,-1.853 6.968,-2.629 0.395,-0.13 1.166,0.269 1.492,0.654 1.039,1.228 1.953,2.563 2.91,3.861 0.852,1.154 1.656,2.347 2.572,3.447 0.25,0.3 0.879,0.531 1.243,0.438 0.891,-0.227 1.674,-0.176 2.218,0.557 0.674,0.908 1.335,1.898 0.617,3.102 -0.407,0.683 -0.443,1.245 0.105,1.932 2.456,3.078 4.915,6.157 7.257,9.32 2.221,3 4.284,6.116 6.446,9.161 1.575,2.219 3.213,4.393 4.79,6.61 1,1.406 1.912,2.875 2.921,4.274 0.49,0.685 1.114,1.273 1.841,2.084 z m 28.555,-45.91 c -0.103,0.183 -0.197,0.308 -0.248,0.448 -1.261,3.488 -2.518,6.977 -3.775,10.467 -0.797,2.211 -1.68,4.396 -2.37,6.64 -1.422,4.625 -2.705,9.293 -4.115,13.921 -0.706,2.317 -1.561,4.588 -2.359,6.876 -0.937,2.688 -1.866,5.38 -2.837,8.057 -0.555,1.53 -1.222,3.019 -1.775,4.549 -0.719,1.988 -1.265,4.047 -2.113,5.975 -0.358,0.814 -0.366,1.339 0.12,1.977 1.478,1.94 2.986,3.858 4.421,5.83 1.086,1.493 2.026,3.092 3.128,4.572 0.95,1.276 1.86,2.519 1.923,4.199 0.01,0.253 0.334,0.597 0.596,0.718 1.066,0.492 2.189,0.861 3.245,1.371 2.154,1.041 4.222,2.277 6.425,3.191 3.676,1.525 7.437,2.845 11.15,4.282 2.479,0.959 4.947,1.948 7.402,2.965 3.949,1.635 7.875,3.327 11.829,4.948 1.983,0.813 4.001,1.542 6.015,2.275 1.294,0.471 1.658,1.023 1.343,2.39 -0.45,-0.131 -0.91,-0.217 -1.33,-0.396 -1.402,-0.594 -2.781,-1.243 -4.184,-1.832 -3.201,-1.344 -6.408,-2.676 -9.62,-3.994 -1.985,-0.814 -3.984,-1.595 -5.977,-2.39 -2.801,-1.118 -5.604,-2.23 -8.401,-3.357 -1.255,-0.506 -2.494,-1.054 -3.747,-1.566 -2.822,-1.152 -5.665,-2.254 -8.467,-3.453 -1.898,-0.812 -3.74,-1.755 -5.823,-2.741 0.045,0.568 0.054,0.865 0.094,1.158 0.189,1.377 0.397,2.751 0.578,4.129 0.319,2.426 0.518,4.874 0.965,7.276 0.377,2.026 -0.382,2.924 -2.397,2.473 -0.076,-0.017 -0.141,-0.078 -0.216,-0.101 -3.435,-1.04 -6.871,-2.075 -10.305,-3.116 -1.644,-0.498 -3.26,-1.128 -4.936,-1.472 -1.519,-0.312 -2.667,-0.934 -3.395,-2.327 -0.151,-0.289 -0.524,-0.462 -0.983,-0.846 -0.713,2.034 -1.399,3.808 -1.956,5.622 -0.848,2.764 -1.614,5.553 -2.394,8.338 -0.089,0.317 -0.159,0.722 -0.04,1.002 0.792,1.863 2.353,2.927 4.128,3.67 2.704,1.133 5.448,2.171 8.173,3.254 2.36,0.939 4.698,1.938 7.082,2.814 2.855,1.05 5.763,1.957 8.619,3.006 1.649,0.606 3.198,1.501 4.865,2.037 3.537,1.136 7.123,2.116 10.686,3.172 2.739,0.812 5.473,1.642 8.209,2.464 2.424,0.728 4.882,1.358 7.263,2.207 3.715,1.324 7.381,2.786 11.057,4.218 0.537,0.209 0.808,0.288 1.043,-0.401 1.085,-3.174 2.216,-6.333 3.369,-9.483 1.656,-4.525 3.356,-9.033 5.015,-13.556 1.213,-3.306 2.388,-6.627 3.589,-9.937 0.453,-1.249 0.985,-2.472 1.386,-3.736 0.673,-2.119 1.259,-4.264 1.901,-6.393 0.994,-3.296 2.004,-6.587 3.011,-9.879 0.124,-0.406 0.247,-0.816 0.418,-1.204 0.471,-1.068 1.087,-2.087 1.431,-3.193 1.011,-3.253 1.922,-6.537 2.864,-9.812 0.919,-3.195 1.807,-6.399 2.747,-9.588 0.753,-2.552 1.532,-5.099 2.363,-7.627 0.66,-2.007 1.468,-3.966 2.118,-5.976 0.576,-1.782 1.019,-3.607 1.531,-5.41 0.668,-2.35 1.348,-4.696 2.06,-7.172 -1.87,-0.583 -3.629,-1.132 -5.456,-1.702 -0.149,0.875 -0.238,1.496 -0.364,2.11 -0.133,0.651 -0.298,1.296 -0.454,1.942 -0.447,1.847 -1.513,2.869 -2.779,2.526 -1.621,-0.438 -3.213,-0.985 -4.81,-1.505 -1.847,-0.601 -3.679,-1.247 -5.531,-1.833 -1.6,-0.506 -3.245,-0.881 -4.823,-1.445 -3.68,-1.316 -7.318,-2.751 -11,-4.06 -2.171,-0.772 -4.404,-1.367 -6.592,-2.094 -3.065,-1.02 -6.121,-2.067 -9.167,-3.143 -2.245,-0.793 -4.421,-1.831 -6.713,-2.432 -2.696,-0.707 -3.808,-2.751 -4.85,-4.942 -0.137,-0.287 0.024,-0.759 0.143,-1.114 0.116,-0.346 0.354,-0.651 0.624,-1.122 -2.94,-0.926 -5.715,-1.801 -8.627,-2.719 z m 72.63,20.706 c -0.3,0.463 -0.498,0.657 -0.565,0.889 -0.738,2.544 -1.434,5.099 -2.183,7.64 -0.697,2.363 -1.407,4.723 -2.178,7.063 -0.741,2.248 -1.625,4.449 -2.34,6.704 -0.721,2.272 -1.277,4.596 -1.968,6.878 -0.665,2.194 -1.46,4.348 -2.11,6.545 -1.098,3.709 -2.085,7.451 -3.203,11.153 -0.62,2.056 -1.422,4.056 -2.12,6.089 -1.156,3.363 -2.289,6.734 -3.444,10.097 -0.239,0.696 -0.582,1.357 -0.793,2.06 -0.452,1.504 -0.792,3.043 -1.28,4.535 -1.041,3.187 -2.098,6.371 -3.242,9.522 -0.797,2.194 -1.808,4.309 -2.618,6.498 -1.067,2.884 -2.011,5.813 -3.048,8.708 -0.499,1.391 -1.159,2.726 -1.624,4.127 -0.701,2.116 -1.285,4.27 -1.941,6.401 -0.214,0.697 -1.787,1.453 -2.453,1.203 -2.302,-0.861 -4.601,-1.731 -6.902,-2.598 -2.296,-0.865 -4.581,-1.759 -6.891,-2.583 -1.023,-0.365 -2.114,-0.538 -3.144,-0.886 -1.775,-0.6 -3.505,-1.337 -5.292,-1.895 -2.763,-0.862 -5.559,-1.618 -8.34,-2.425 -0.486,-0.141 -0.958,-0.327 -1.444,-0.469 -2.545,-0.746 -5.285,-1.118 -7.585,-2.328 -2.339,-1.23 -4.852,-1.824 -7.224,-2.862 -2.348,-1.027 -4.795,-1.828 -7.198,-2.73 -3.989,-1.498 -7.999,-2.945 -11.956,-4.524 -1.404,-0.56 -2.655,-1.491 -4.017,-2.17 -1.627,-0.811 -2.213,-2.477 -1.516,-4.159 0.457,-1.104 0.726,-2.288 1.049,-3.444 0.389,-1.394 0.69,-2.815 1.131,-4.192 0.739,-2.31 1.6,-4.582 2.305,-6.902 0.139,-0.457 -0.045,-1.161 -0.334,-1.573 -1.561,-2.224 -3.202,-4.392 -4.901,-6.696 -0.179,0.411 -0.333,0.669 -0.405,0.948 -0.431,1.666 -0.719,3.38 -1.288,4.996 -1.02,2.898 -2.694,5.522 -3.461,8.552 -0.513,2.03 -1.481,3.941 -2.172,5.93 -0.667,1.922 -1.028,3.979 -1.907,5.791 -1.045,2.153 -0.575,4.198 -0.139,6.27 0.444,2.108 2.136,3.431 3.74,4.534 3.378,2.324 7.033,4.208 10.9,5.627 3.231,1.185 6.474,2.336 9.724,3.468 2.445,0.852 4.913,1.641 7.364,2.475 3.368,1.145 6.736,2.288 10.091,3.468 1.322,0.465 2.578,1.144 3.921,1.52 2.384,0.668 4.821,1.147 7.219,1.77 1.206,0.313 2.365,0.802 3.563,1.15 1.483,0.432 2.988,0.788 4.477,1.201 1.697,0.471 3.375,1.016 5.083,1.441 2.19,0.545 4.456,0.834 6.592,1.531 4.418,1.441 8.771,3.08 13.153,4.632 1.013,0.359 3.654,-0.603 4.037,-1.538 0.545,-1.33 1.038,-2.687 1.469,-4.058 0.62,-1.976 1.082,-4.005 1.757,-5.961 1.286,-3.73 2.678,-7.423 4.019,-11.135 1.039,-2.876 1.893,-5.833 3.141,-8.614 1.591,-3.549 2.728,-7.229 3.841,-10.932 0.481,-1.603 1.005,-3.194 1.564,-4.771 1.02,-2.879 2.113,-5.732 3.114,-8.617 0.998,-2.875 1.931,-5.773 2.868,-8.668 0.276,-0.853 0.401,-1.759 0.716,-2.595 1.047,-2.779 2.128,-5.545 3.234,-8.3 1.34,-3.337 2.75,-6.646 4.074,-9.99 1.168,-2.952 2.313,-5.915 3.367,-8.908 1.247,-3.543 2.362,-7.132 3.586,-10.683 0.341,-0.991 0.888,-1.91 1.296,-2.88 0.706,-1.681 1.351,-3.388 2.071,-5.063 0.752,-1.748 1.582,-3.462 2.337,-5.209 0.241,-0.559 0.556,-1.202 0.482,-1.76 -0.207,-1.582 -0.756,-3.096 -1.912,-4.248 -1.572,-1.567 -3.312,-2.769 -5.58,-3.349 -2.573,-0.658 -5.019,-1.809 -7.522,-2.74 -1.966,-0.731 -3.932,-1.461 -5.905,-2.172 -0.568,-0.205 -1.158,-0.346 -2.181,-0.647 1.7,3.886 1.499,7.666 1.515,11.236 2.483,1.16 5.201,1.192 7.526,2.622 z m -22.099,-30.902 c -0.434,-2.027 0.554,-4.077 0.412,-6.32 -0.185,-2.923 -2.233,-4.541 -4.467,-4.287 -2.518,0.286 -4.443,1.689 -5.772,3.862 -0.369,0.604 -0.669,1.251 -1.061,1.839 -0.149,0.224 -0.481,0.496 -0.701,0.473 -1.051,-0.112 -2.165,-0.14 -3.123,-0.527 -2.13,-0.861 -2.772,-0.67 -3.428,1.441 -0.244,0.784 -0.485,1.575 -0.645,2.379 -0.343,1.728 -0.593,2.062 -2.273,2 -4.482,-0.163 -8.258,1.601 -11.659,4.269 -1.85,1.451 -3.657,3.016 -5.203,4.776 -1.16,1.321 -1.894,3.023 -2.765,4.585 -0.13,0.233 -0.088,0.716 0.075,0.93 0.5,0.653 1.078,1.249 1.66,1.833 1.941,1.949 4.661,2.42 7.019,3.548 2.07,0.99 4.431,1.358 6.638,2.08 2.95,0.966 5.88,1.996 8.811,3.021 2.717,0.95 5.43,1.91 8.131,2.902 1.607,0.59 3.155,1.357 4.788,1.854 3.091,0.94 6.226,1.734 9.338,2.606 1.902,0.533 3.795,1.098 5.784,1.676 0.15,-0.416 0.339,-0.768 0.401,-1.141 0.286,-1.743 0.569,-3.487 0.792,-5.239 0.361,-2.828 0.266,-5.653 -0.54,-8.391 -0.431,-1.464 -1.016,-2.916 -1.761,-4.244 -0.932,-1.662 -2.136,-3.17 -3.153,-4.788 -0.545,-0.867 -1.003,-1.848 -0.328,-2.86 0.84,-1.258 1.391,-2.596 1.621,-4.104 0.111,-0.724 0.1,-1.223 -0.669,-1.457 -1.01,-0.307 -2.035,-0.565 -3.031,-0.912 -1.618,-0.567 -3.22,-1.186 -4.891,-1.804 z m -71.746,66.777 c 0.363,-0.872 0.673,-1.544 0.925,-2.236 1.057,-2.908 2.062,-5.836 3.152,-8.731 1.461,-3.881 3.159,-7.682 4.441,-11.619 2.241,-6.882 4.222,-13.849 6.351,-20.767 1.06,-3.443 2.164,-6.874 3.338,-10.279 0.5,-1.45 1.474,-2.746 1.239,-4.417 -0.015,-0.109 0.639,-0.502 0.885,-0.43 2.779,0.807 5.548,1.653 8.301,2.546 1.057,0.343 1.997,0.657 2.818,-0.479 0.577,-0.798 1.274,-1.518 1.97,-2.221 1.513,-1.528 3.059,-3.022 4.619,-4.558 -0.126,-0.075 -0.309,-0.232 -0.52,-0.301 -3.001,-0.975 -6.033,-1.863 -9,-2.932 -1.992,-0.717 -3.977,-1.26 -6.105,-1.157 -1.14,0.055 -2.29,0.242 -3.418,0.153 -2.707,-0.214 -5.01,2.271 -6.021,3.996 -0.39,0.666 -0.557,1.462 -0.829,2.198 -0.472,1.279 -0.866,2.594 -1.437,3.828 -1.145,2.475 -2.688,4.81 -3.505,7.381 -0.815,2.567 -1.478,5.171 -2.481,7.694 -1.197,3.01 -2.085,6.141 -3.149,9.205 -0.703,2.025 -1.513,4.013 -2.209,6.041 -0.268,0.782 -0.291,1.646 -0.533,2.44 -1.062,3.481 -2.201,6.939 -3.236,10.427 -0.54,1.819 -0.922,3.685 -1.495,6.019 1.73,2.403 3.78,5.253 5.899,8.199 z m 7.958,18.625 c -1.494,-1.911 -2.719,-3.404 -3.861,-4.958 -1.557,-2.118 -3.025,-4.301 -4.583,-6.418 -0.655,-0.89 -1.507,-1.634 -2.158,-2.527 -1.915,-2.626 -3.752,-5.309 -5.66,-7.94 -1.815,-2.504 -3.713,-4.947 -5.514,-7.46 -1.394,-1.946 -2.618,-4.017 -4.056,-5.929 -2.24,-2.977 -4.587,-5.873 -6.906,-8.789 -2.738,-3.442 -4.695,-7.451 -7.823,-10.619 -1.047,-1.06 -1.817,-2.389 -2.764,-3.554 -0.167,-0.206 -0.718,-0.389 -0.86,-0.28 -1.027,0.787 -1.995,1.652 -3.007,2.513 1.234,1.833 2.441,3.633 3.656,5.428 1.874,2.77 3.698,5.576 5.65,8.29 1.447,2.011 3.077,3.889 4.6,5.846 0.601,0.773 1.11,1.617 1.7,2.399 1.316,1.746 2.714,3.432 3.972,5.218 1.657,2.352 3.18,4.798 4.816,7.165 2.323,3.36 4.702,6.681 7.048,10.025 2.738,3.903 5.467,7.812 8.195,11.722 0.914,1.31 2.216,1.733 3.674,1.355 1.256,-0.325 2.441,-0.922 3.881,-1.487 z m -52.119,-52.817 c 1.645,2.679 3.183,5.421 4.952,8.005 1.998,2.919 4.204,5.695 6.318,8.535 1.009,1.355 2.075,2.673 3.001,4.083 0.894,1.361 1.563,2.87 2.47,4.221 1.27,1.891 2.709,3.669 4.001,5.546 1.412,2.051 2.688,4.198 4.12,6.234 1.12,1.591 2.452,3.031 3.577,4.619 2.215,3.125 4.338,6.315 6.524,9.461 2.24,3.223 4.509,6.425 6.745,9.607 2.052,-0.912 3.295,-3.497 2.386,-4.899 -1.573,-2.424 -3.228,-4.797 -4.887,-7.165 -0.917,-1.308 -1.973,-2.521 -2.858,-3.849 -1.776,-2.665 -3.424,-5.415 -5.223,-8.063 -2.228,-3.281 -4.568,-6.486 -6.836,-9.74 -1.184,-1.699 -2.262,-3.474 -3.49,-5.139 -1.369,-1.856 -2.869,-3.615 -4.286,-5.437 -1.482,-1.905 -2.976,-3.803 -4.385,-5.762 -2.19,-3.046 -4.314,-6.14 -6.46,-9.218 -0.643,-0.922 -1.226,-1.889 -1.929,-2.761 -0.168,-0.208 -0.804,-0.282 -1.059,-0.134 -0.876,0.509 -1.678,1.145 -2.681,1.856 z m 39.921,60.326 c -0.405,-0.623 -0.709,-1.168 -1.087,-1.656 -0.773,-0.999 -1.677,-1.907 -2.366,-2.959 -2.562,-3.906 -4.987,-7.902 -7.6,-11.773 -2.492,-3.691 -5.156,-7.265 -7.739,-10.894 -2.369,-3.328 -4.74,-6.655 -7.093,-9.995 -2.419,-3.433 -4.807,-6.888 -7.229,-10.318 -1.699,-2.406 -3.464,-4.766 -5.142,-7.187 -0.888,-1.281 -1.623,-2.667 -2.493,-3.962 -0.2,-0.297 -0.726,-0.643 -1.001,-0.572 -0.813,0.209 -1.575,0.614 -2.516,1.009 0.609,0.809 1.152,1.469 1.628,2.173 1.31,1.938 2.564,3.914 3.896,5.836 0.918,1.325 1.974,2.554 2.887,3.881 2.172,3.159 4.267,6.37 6.448,9.523 1.62,2.342 3.306,4.64 5.001,6.929 1.91,2.58 3.908,5.096 5.784,7.701 2.72,3.776 5.367,7.604 8.041,11.413 0.519,0.739 0.972,1.527 1.534,2.23 1.431,1.791 2.734,3.74 4.42,5.256 1.357,1.223 1.797,3.768 4.627,3.365 z m -32.22,-72.895 c -0.236,-0.489 -0.359,-0.925 -0.618,-1.254 -1.386,-1.761 -2.79,-3.51 -4.238,-5.22 -0.17,-0.201 -0.688,-0.271 -0.979,-0.183 -2.502,0.762 -5.013,1.54 -7.052,3.286 -1.894,1.622 -3.806,3.23 -5.607,4.951 -0.869,0.831 -1.793,1.899 -1.189,3.232 0.491,1.084 1.284,2.038 1.992,3.015 0.534,0.736 1.043,1.835 1.749,2.006 0.738,0.178 1.737,-0.484 2.551,-0.914 2.041,-1.078 4.133,-2.098 6.037,-3.388 2.501,-1.693 4.841,-3.623 7.354,-5.531 z m 44.933,63.47 c 0.224,-1.203 0.156,-1.976 -0.773,-2.471 -0.14,-0.074 -0.212,-0.278 -0.311,-0.424 -1.806,-2.656 -3.567,-5.343 -5.434,-7.955 -0.967,-1.353 -2.197,-2.518 -3.175,-3.864 -1.225,-1.685 -2.28,-3.491 -3.469,-5.203 -1.709,-2.462 -3.453,-4.901 -5.217,-7.324 -2.121,-2.916 -4.315,-5.779 -6.408,-8.715 -1.496,-2.097 -2.83,-4.31 -4.323,-6.409 -1.595,-2.241 -3.278,-4.42 -4.949,-6.606 -1.184,-1.549 -2.4,-3.075 -3.625,-4.592 -1.31,-1.622 -2.632,-3.235 -3.995,-4.811 -0.145,-0.167 -0.604,-0.063 -0.917,-0.084 -0.019,0.315 -0.18,0.734 -0.036,0.93 1.29,1.764 2.66,3.469 3.954,5.23 1.038,1.412 1.977,2.897 3.01,4.313 0.659,0.903 1.467,1.699 2.107,2.615 1.585,2.268 3.024,4.643 4.69,6.847 1.162,1.537 2.73,2.768 3.888,4.307 1.386,1.843 2.479,3.904 3.788,5.808 1.78,2.589 3.61,5.145 5.484,7.667 1.221,1.643 2.6,3.169 3.835,4.803 2.029,2.685 3.998,5.415 5.993,8.126 1.649,2.24 3.296,4.481 4.951,6.717 0.232,0.317 0.51,0.604 0.932,1.095 z m -10.922,11.354 c 0.747,0.259 1.329,0.489 1.927,0.664 1.646,0.48 3.282,1.019 4.955,1.378 1.376,0.295 2.99,1.645 4.043,-0.604 0.105,-0.224 0.603,-0.233 0.806,-0.448 0.376,-0.397 0.966,-0.885 0.948,-1.314 -0.119,-2.805 -0.376,-5.604 -0.587,-8.377 -0.351,-0.026 -0.502,-0.085 -0.582,-0.033 -0.189,0.121 -0.338,0.304 -0.515,0.447 -1.655,1.324 -3.349,2.536 -5.658,2.175 -0.648,-0.101 -0.947,0.133 -1.094,0.88 -0.475,2.396 -1.534,4.414 -4.243,5.232 z m -30.546,-72.886 c -0.845,-0.15 -1.609,-0.296 -2.377,-0.415 -0.142,-0.022 -0.331,0.018 -0.448,0.1 -1.121,0.793 -2.229,1.604 -3.344,2.403 -2.952,2.115 -5.906,4.225 -8.859,6.34 -1.051,0.753 -2.115,1.49 -3.13,2.287 -0.176,0.138 -0.197,0.549 -0.172,0.823 0.01,0.078 0.479,0.23 0.658,0.155 1.842,-0.762 3.77,-1.39 5.473,-2.395 2.394,-1.414 4.679,-3.035 6.893,-4.721 1.861,-1.415 3.553,-3.05 5.306,-4.577 z"
     id="path657" />
  <path
     fill="#d7f7d9"
     d="m 1629.773,1377.925 c 2.912,0.918 5.687,1.793 8.628,2.72 -0.269,0.471 -0.508,0.776 -0.624,1.122 -0.119,0.354 -0.28,0.826 -0.143,1.114 1.042,2.191 2.154,4.235 4.85,4.942 2.292,0.601 4.468,1.639 6.713,2.432 3.046,1.076 6.102,2.124 9.167,3.143 2.188,0.728 4.421,1.322 6.592,2.094 3.682,1.309 7.32,2.744 11,4.06 1.578,0.564 3.223,0.939 4.823,1.445 1.852,0.586 3.684,1.231 5.531,1.833 1.598,0.52 3.19,1.067 4.81,1.505 1.266,0.343 2.333,-0.679 2.779,-2.526 0.156,-0.646 0.321,-1.291 0.454,-1.942 0.126,-0.614 0.215,-1.235 0.364,-2.11 1.827,0.57 3.586,1.119 5.456,1.702 -0.712,2.476 -1.391,4.823 -2.06,7.172 -0.513,1.803 -0.955,3.628 -1.531,5.41 -0.65,2.01 -1.458,3.969 -2.118,5.976 -0.832,2.528 -1.61,5.074 -2.363,7.627 -0.941,3.188 -1.828,6.393 -2.747,9.588 -0.942,3.274 -1.853,6.559 -2.864,9.812 -0.344,1.105 -0.96,2.125 -1.431,3.193 -0.171,0.387 -0.294,0.798 -0.418,1.204 -1.007,3.292 -2.016,6.583 -3.011,9.879 -0.642,2.128 -1.229,4.274 -1.901,6.393 -0.402,1.265 -0.933,2.487 -1.386,3.736 -1.201,3.311 -2.375,6.631 -3.589,9.937 -1.66,4.523 -3.36,9.031 -5.015,13.556 -1.153,3.15 -2.284,6.309 -3.369,9.483 -0.235,0.688 -0.506,0.61 -1.043,0.401 -3.676,-1.432 -7.342,-2.894 -11.057,-4.218 -2.381,-0.849 -4.839,-1.479 -7.263,-2.207 -2.736,-0.822 -5.47,-1.652 -8.209,-2.464 -3.563,-1.056 -7.15,-2.036 -10.686,-3.172 -1.668,-0.536 -3.216,-1.431 -4.865,-2.037 -2.856,-1.049 -5.764,-1.956 -8.619,-3.006 -2.383,-0.876 -4.721,-1.875 -7.082,-2.814 -2.725,-1.084 -5.469,-2.122 -8.173,-3.254 -1.774,-0.743 -3.336,-1.808 -4.128,-3.67 -0.119,-0.28 -0.049,-0.684 0.04,-1.002 0.78,-2.784 1.545,-5.574 2.394,-8.338 0.557,-1.814 1.243,-3.589 1.956,-5.622 0.459,0.384 0.832,0.557 0.983,0.846 0.728,1.392 1.876,2.015 3.395,2.327 1.675,0.344 3.292,0.974 4.936,1.472 3.434,1.041 6.87,2.076 10.305,3.116 0.075,0.023 0.14,0.084 0.216,0.101 2.015,0.451 2.774,-0.448 2.397,-2.473 -0.447,-2.402 -0.646,-4.85 -0.965,-7.276 -0.181,-1.378 -0.39,-2.752 -0.578,-4.129 -0.04,-0.293 -0.049,-0.59 -0.094,-1.158 2.083,0.987 3.926,1.929 5.823,2.741 2.802,1.199 5.645,2.301 8.467,3.453 1.253,0.512 2.491,1.06 3.747,1.566 2.797,1.128 5.6,2.239 8.401,3.357 1.993,0.796 3.992,1.576 5.977,2.39 3.212,1.318 6.419,2.65 9.62,3.994 1.404,0.589 2.783,1.238 4.184,1.832 0.421,0.178 0.88,0.265 1.33,0.396 0.315,-1.367 -0.049,-1.919 -1.343,-2.39 -2.014,-0.733 -4.032,-1.462 -6.015,-2.275 -3.954,-1.622 -7.88,-3.313 -11.829,-4.948 -2.456,-1.017 -4.924,-2.005 -7.402,-2.965 -3.713,-1.437 -7.474,-2.756 -11.15,-4.282 -2.203,-0.914 -4.272,-2.15 -6.425,-3.191 -1.056,-0.51 -2.179,-0.879 -3.245,-1.371 -0.262,-0.121 -0.587,-0.465 -0.596,-0.718 -0.063,-1.68 -0.973,-2.924 -1.923,-4.199 -1.102,-1.48 -2.042,-3.079 -3.128,-4.572 -1.435,-1.971 -2.943,-3.89 -4.421,-5.83 -0.486,-0.638 -0.478,-1.163 -0.12,-1.977 0.848,-1.928 1.393,-3.987 2.113,-5.975 0.554,-1.53 1.22,-3.019 1.775,-4.549 0.971,-2.676 1.9,-5.368 2.837,-8.057 0.798,-2.288 1.653,-4.56 2.359,-6.876 1.411,-4.629 2.694,-9.296 4.115,-13.921 0.69,-2.244 1.573,-4.429 2.37,-6.64 1.257,-3.489 2.514,-6.979 3.775,-10.467 0.051,-0.141 0.145,-0.266 0.247,-0.449 z m -10.808,55.142 c -0.311,0.229 -0.722,0.38 -0.782,0.62 -0.055,0.222 0.218,0.585 0.434,0.799 0.183,0.181 0.48,0.291 0.743,0.339 3.955,0.729 7.548,2.478 11.215,4.004 3.23,1.344 6.394,2.846 9.63,4.174 2.277,0.934 4.635,1.672 6.943,2.536 3.373,1.262 6.737,2.549 10.099,3.844 3.65,1.406 7.305,2.799 10.93,4.264 1.813,0.733 3.552,1.646 5.359,2.394 0.289,0.12 0.762,-0.206 1.15,-0.326 -0.191,-0.439 -0.327,-0.917 -0.598,-1.299 -0.116,-0.164 -0.534,-0.081 -0.781,-0.189 -2.646,-1.157 -5.25,-2.418 -7.934,-3.476 -3.158,-1.245 -6.392,-2.294 -9.578,-3.472 -3.331,-1.231 -6.638,-2.526 -9.964,-3.769 -2.654,-0.991 -5.368,-1.834 -7.972,-2.94 -4.141,-1.758 -8.176,-3.768 -12.33,-5.494 -2.078,-0.865 -4.321,-1.338 -6.564,-2.009 z m 12.881,-34.483 c -0.243,0.214 -0.607,0.383 -0.666,0.626 -0.079,0.327 -0.052,0.855 0.157,1.041 0.462,0.409 1.031,0.798 1.618,0.944 1.627,0.405 3.289,0.672 4.932,1.015 0.609,0.127 1.225,0.265 1.805,0.486 1.81,0.691 3.591,1.462 5.409,2.131 1.502,0.553 3.049,0.981 4.561,1.509 2.023,0.706 4.018,1.495 6.05,2.175 2.075,0.695 4.196,1.253 6.268,1.957 2.619,0.89 5.198,1.896 7.815,2.792 1.192,0.408 2.456,0.61 3.644,1.03 0.722,0.255 1.331,0.822 2.045,1.115 1.302,0.534 2.65,0.954 3.967,1.452 0.507,0.192 0.959,0.554 1.476,0.686 1.284,0.33 2.581,0.639 3.893,0.812 0.43,0.057 0.919,-0.331 1.382,-0.515 -0.289,-0.316 -0.521,-0.77 -0.88,-0.92 -0.786,-0.328 -1.635,-0.507 -2.46,-0.738 -2.337,-0.655 -4.711,-1.201 -7.004,-1.985 -2.835,-0.969 -5.592,-2.164 -8.404,-3.205 -2.71,-1.003 -5.442,-1.944 -8.172,-2.892 -1.912,-0.664 -3.851,-1.254 -5.753,-1.947 -3.033,-1.104 -6.013,-2.362 -9.075,-3.377 -3.163,-1.048 -6.375,-1.969 -9.611,-2.761 -0.967,-0.237 -1.867,-0.35 -2.533,-1.149 -0.093,-0.111 -0.259,-0.161 -0.464,-0.282 z m 50.208,38.443 c 0.037,-0.106 0.075,-0.212 0.112,-0.318 -1.059,-1.048 -2.448,-1.555 -3.829,-2.017 -2.763,-0.924 -5.567,-1.73 -8.327,-2.664 -2.926,-0.99 -5.813,-2.097 -8.733,-3.106 -4.164,-1.438 -8.351,-2.808 -12.511,-4.255 -3.918,-1.362 -7.829,-2.745 -11.715,-4.193 -4.008,-1.494 -7.988,-3.065 -11.966,-4.638 -0.668,-0.264 -1.162,-0.099 -1.349,0.483 -0.077,0.24 0.327,0.843 0.636,0.965 2.348,0.928 4.73,1.772 7.097,2.655 3,1.119 5.993,2.258 8.996,3.37 0.582,0.215 1.194,0.357 1.799,0.504 1.104,0.269 2.34,0.292 3.29,0.828 1.282,0.724 2.599,1.116 3.994,1.491 1.71,0.459 3.328,1.252 5.005,1.847 2.213,0.786 4.454,1.492 6.663,2.288 2.062,0.742 4.078,1.612 6.149,2.326 3.837,1.325 7.69,2.606 11.556,3.84 1.005,0.32 2.086,0.402 3.133,0.594 z"
     id="path658"
     style="fill:#f4eed7" />
  <path
     fill="#90db95"
     d="m 1702.403,1398.631 c -2.325,-1.43 -5.043,-1.462 -7.528,-2.625 -0.016,-3.57 0.186,-7.349 -1.515,-11.236 1.022,0.3 1.613,0.442 2.181,0.647 1.973,0.712 3.939,1.442 5.905,2.172 2.503,0.931 4.949,2.082 7.522,2.74 2.268,0.58 4.008,1.783 5.58,3.349 1.156,1.152 1.705,2.666 1.912,4.248 0.073,0.558 -0.241,1.201 -0.482,1.76 -0.755,1.747 -1.585,3.461 -2.337,5.209 -0.72,1.675 -1.365,3.382 -2.071,5.063 -0.408,0.971 -0.955,1.889 -1.296,2.88 -1.224,3.551 -2.339,7.14 -3.586,10.683 -1.054,2.994 -2.2,5.957 -3.367,8.908 -1.323,3.344 -2.733,6.653 -4.074,9.99 -1.107,2.755 -2.188,5.521 -3.234,8.3 -0.315,0.836 -0.439,1.742 -0.716,2.595 -0.937,2.896 -1.87,5.793 -2.868,8.668 -1.001,2.885 -2.094,5.738 -3.114,8.617 -0.559,1.577 -1.083,3.169 -1.564,4.771 -1.113,3.703 -2.249,7.384 -3.841,10.932 -1.247,2.781 -2.102,5.739 -3.141,8.614 -1.34,3.711 -2.733,7.405 -4.019,11.135 -0.674,1.956 -1.137,3.984 -1.757,5.961 -0.43,1.372 -0.924,2.728 -1.469,4.058 -0.383,0.935 -3.024,1.897 -4.037,1.538 -4.382,-1.552 -8.735,-3.192 -13.153,-4.632 -2.136,-0.697 -4.402,-0.986 -6.592,-1.531 -1.708,-0.425 -3.386,-0.97 -5.083,-1.441 -1.489,-0.413 -2.994,-0.769 -4.477,-1.201 -1.198,-0.349 -2.357,-0.837 -3.563,-1.15 -2.398,-0.623 -4.835,-1.102 -7.219,-1.77 -1.343,-0.376 -2.599,-1.055 -3.921,-1.52 -3.355,-1.18 -6.724,-2.323 -10.091,-3.468 -2.452,-0.834 -4.919,-1.623 -7.364,-2.475 -3.25,-1.132 -6.493,-2.283 -9.724,-3.468 -3.866,-1.418 -7.522,-3.302 -10.9,-5.627 -1.604,-1.104 -3.296,-2.427 -3.74,-4.534 -0.436,-2.072 -0.906,-4.117 0.139,-6.27 0.879,-1.812 1.24,-3.869 1.907,-5.791 0.69,-1.99 1.658,-3.901 2.172,-5.93 0.766,-3.03 2.44,-5.654 3.461,-8.552 0.569,-1.616 0.857,-3.33 1.288,-4.996 0.072,-0.279 0.227,-0.538 0.405,-0.948 1.699,2.304 3.34,4.472 4.901,6.696 0.289,0.412 0.473,1.116 0.334,1.573 -0.705,2.32 -1.566,4.592 -2.305,6.902 -0.44,1.377 -0.741,2.798 -1.131,4.192 -0.323,1.156 -0.591,2.341 -1.049,3.444 -0.697,1.682 -0.111,3.348 1.516,4.159 1.362,0.679 2.613,1.609 4.017,2.17 3.957,1.579 7.966,3.026 11.956,4.524 2.403,0.902 4.85,1.703 7.198,2.73 2.372,1.038 4.885,1.632 7.224,2.862 2.3,1.21 5.04,1.582 7.585,2.328 0.486,0.142 0.958,0.328 1.444,0.469 2.78,0.807 5.576,1.564 8.34,2.425 1.787,0.557 3.517,1.294 5.292,1.895 1.03,0.349 2.121,0.521 3.144,0.886 2.31,0.824 4.596,1.718 6.891,2.583 2.3,0.867 4.599,1.737 6.902,2.598 0.666,0.249 2.238,-0.506 2.453,-1.203 0.656,-2.131 1.24,-4.286 1.941,-6.401 0.464,-1.401 1.125,-2.736 1.624,-4.127 1.037,-2.895 1.981,-5.824 3.048,-8.708 0.81,-2.189 1.821,-4.305 2.618,-6.498 1.144,-3.151 2.201,-6.335 3.242,-9.522 0.487,-1.492 0.828,-3.031 1.28,-4.535 0.211,-0.703 0.554,-1.364 0.793,-2.06 1.155,-3.363 2.288,-6.734 3.444,-10.097 0.698,-2.033 1.5,-4.033 2.12,-6.089 1.117,-3.703 2.104,-7.445 3.203,-11.153 0.651,-2.197 1.445,-4.352 2.11,-6.545 0.692,-2.282 1.248,-4.606 1.968,-6.878 0.715,-2.255 1.599,-4.457 2.34,-6.704 0.771,-2.339 1.481,-4.7 2.178,-7.063 0.749,-2.54 1.446,-5.096 2.183,-7.64 0.069,-0.229 0.267,-0.423 0.567,-0.886 z"
     id="path659" />
  <path
     fill="#c4c4c4"
     d="m 1680.304,1367.729 c 1.671,0.618 3.273,1.237 4.894,1.801 0.995,0.346 2.021,0.605 3.031,0.912 0.769,0.234 0.78,0.732 0.669,1.457 -0.23,1.508 -0.782,2.846 -1.621,4.104 -0.675,1.012 -0.217,1.992 0.328,2.86 1.016,1.619 2.22,3.126 3.153,4.788 0.745,1.328 1.33,2.781 1.761,4.244 0.806,2.739 0.901,5.563 0.54,8.391 -0.223,1.752 -0.506,3.496 -0.792,5.239 -0.061,0.373 -0.251,0.725 -0.401,1.141 -1.989,-0.578 -3.882,-1.143 -5.784,-1.676 -3.112,-0.872 -6.247,-1.666 -9.338,-2.606 -1.633,-0.497 -3.181,-1.264 -4.788,-1.854 -2.701,-0.992 -5.415,-1.952 -8.131,-2.902 -2.931,-1.025 -5.86,-2.055 -8.811,-3.021 -2.207,-0.722 -4.568,-1.09 -6.638,-2.08 -2.358,-1.128 -5.078,-1.599 -7.019,-3.548 -0.582,-0.584 -1.161,-1.181 -1.66,-1.833 -0.163,-0.214 -0.205,-0.697 -0.075,-0.93 0.871,-1.562 1.604,-3.264 2.765,-4.585 1.546,-1.76 3.353,-3.324 5.203,-4.776 3.401,-2.669 7.177,-4.433 11.659,-4.269 1.68,0.061 1.93,-0.273 2.273,-2 0.16,-0.804 0.401,-1.594 0.645,-2.379 0.656,-2.111 1.298,-2.302 3.428,-1.441 0.958,0.387 2.071,0.415 3.123,0.527 0.22,0.023 0.552,-0.249 0.701,-0.473 0.391,-0.588 0.691,-1.235 1.061,-1.839 1.329,-2.172 3.254,-3.575 5.772,-3.862 2.234,-0.254 4.282,1.364 4.467,4.287 0.14,2.247 -0.849,4.297 -0.415,6.323 z m -1.065,-5.899 c -0.34,-0.614 -0.538,-1.555 -1.048,-1.778 -1.268,-0.554 -2.653,-0.639 -3.901,0.299 -0.967,0.726 -1.481,2.213 -1.063,3.268 0.594,1.497 1.577,2.155 3.028,1.839 1.163,-0.253 2.87,-1.748 2.984,-3.628 z"
     id="path660" />
  <path
     fill="#90db95"
     d="m 1608.558,1434.506 c -2.119,-2.946 -4.169,-5.796 -5.897,-8.199 0.573,-2.333 0.956,-4.199 1.495,-6.019 1.035,-3.489 2.174,-6.946 3.236,-10.427 0.242,-0.794 0.265,-1.658 0.533,-2.44 0.696,-2.027 1.506,-4.016 2.209,-6.041 1.064,-3.064 1.953,-6.195 3.149,-9.205 1.003,-2.523 1.665,-5.127 2.481,-7.694 0.817,-2.571 2.36,-4.906 3.505,-7.381 0.571,-1.234 0.965,-2.549 1.437,-3.828 0.272,-0.736 0.438,-1.532 0.829,-2.198 1.011,-1.726 3.314,-4.21 6.021,-3.996 1.128,0.089 2.278,-0.098 3.418,-0.153 2.128,-0.103 4.113,0.44 6.105,1.157 2.967,1.068 5.999,1.956 9,2.932 0.211,0.069 0.393,0.226 0.52,0.301 -1.56,1.535 -3.107,3.03 -4.619,4.558 -0.696,0.703 -1.393,1.423 -1.97,2.221 -0.821,1.136 -1.761,0.821 -2.818,0.479 -2.753,-0.892 -5.521,-1.739 -8.301,-2.546 -0.246,-0.071 -0.9,0.321 -0.885,0.43 0.235,1.671 -0.74,2.966 -1.239,4.417 -1.174,3.406 -2.278,6.836 -3.338,10.279 -2.13,6.919 -4.111,13.885 -6.351,20.767 -1.282,3.937 -2.979,7.738 -4.441,11.619 -1.09,2.896 -2.095,5.823 -3.152,8.731 -0.254,0.692 -0.564,1.364 -0.927,2.236 z"
     id="path661" />
  <path
     fill="#a1f7a7"
     d="m 1616.516,1453.131 c -1.44,0.565 -2.625,1.162 -3.881,1.488 -1.458,0.378 -2.76,-0.045 -3.674,-1.355 -2.728,-3.91 -5.458,-7.819 -8.195,-11.722 -2.346,-3.344 -4.725,-6.665 -7.048,-10.025 -1.637,-2.367 -3.16,-4.813 -4.816,-7.165 -1.258,-1.786 -2.656,-3.472 -3.972,-5.218 -0.59,-0.782 -1.099,-1.626 -1.7,-2.399 -1.523,-1.957 -3.153,-3.835 -4.6,-5.846 -1.953,-2.714 -3.776,-5.52 -5.65,-8.29 -1.215,-1.795 -2.421,-3.594 -3.656,-5.428 1.012,-0.862 1.98,-1.726 3.007,-2.513 0.142,-0.109 0.692,0.075 0.86,0.28 0.947,1.165 1.717,2.494 2.764,3.554 3.128,3.167 5.085,7.177 7.823,10.619 2.32,2.916 4.667,5.812 6.906,8.789 1.438,1.911 2.661,3.983 4.056,5.929 1.801,2.513 3.699,4.957 5.514,7.46 1.908,2.631 3.745,5.313 5.66,7.94 0.651,0.892 1.503,1.637 2.158,2.527 1.558,2.117 3.026,4.3 4.583,6.418 1.142,1.553 2.367,3.046 3.861,4.957 z"
     id="path662"
     style="fill:#447821" />
  <path
     fill="#a1f7a7"
     d="m 1564.397,1400.314 c 1.003,-0.711 1.805,-1.346 2.68,-1.856 0.255,-0.149 0.891,-0.074 1.059,0.134 0.703,0.872 1.287,1.839 1.929,2.761 2.146,3.078 4.271,6.171 6.46,9.218 1.408,1.959 2.903,3.856 4.385,5.762 1.417,1.822 2.917,3.581 4.286,5.437 1.228,1.665 2.306,3.44 3.49,5.139 2.268,3.254 4.607,6.459 6.836,9.74 1.799,2.649 3.447,5.399 5.223,8.063 0.885,1.328 1.941,2.541 2.858,3.849 1.659,2.367 3.313,4.74 4.887,7.165 0.91,1.402 -0.334,3.987 -2.386,4.899 -2.235,-3.181 -4.505,-6.384 -6.745,-9.607 -2.186,-3.146 -4.309,-6.336 -6.524,-9.461 -1.125,-1.587 -2.458,-3.028 -3.577,-4.619 -1.433,-2.036 -2.708,-4.182 -4.12,-6.234 -1.292,-1.877 -2.731,-3.655 -4.001,-5.546 -0.907,-1.351 -1.576,-2.86 -2.47,-4.221 -0.926,-1.41 -1.992,-2.727 -3.001,-4.083 -2.114,-2.84 -4.32,-5.616 -6.318,-8.535 -1.768,-2.585 -3.307,-5.326 -4.951,-8.005 z"
     id="path663"
     style="fill:#44aa00" />
  <path
     fill="#a1f7a7"
     d="m 1604.318,1460.64 c -2.83,0.402 -3.271,-2.142 -4.629,-3.364 -1.686,-1.516 -2.988,-3.465 -4.42,-5.256 -0.562,-0.703 -1.016,-1.492 -1.534,-2.23 -2.674,-3.809 -5.321,-7.637 -8.041,-11.413 -1.876,-2.604 -3.874,-5.12 -5.784,-7.701 -1.694,-2.29 -3.38,-4.587 -5.001,-6.929 -2.181,-3.152 -4.276,-6.364 -6.448,-9.523 -0.913,-1.328 -1.969,-2.557 -2.887,-3.881 -1.332,-1.922 -2.586,-3.899 -3.896,-5.836 -0.476,-0.704 -1.018,-1.364 -1.628,-2.173 0.941,-0.395 1.703,-0.801 2.516,-1.009 0.275,-0.07 0.801,0.275 1.001,0.572 0.869,1.295 1.605,2.681 2.493,3.962 1.678,2.421 3.443,4.781 5.142,7.187 2.423,3.43 4.81,6.885 7.229,10.318 2.353,3.339 4.724,6.667 7.093,9.995 2.583,3.629 5.248,7.203 7.739,10.894 2.613,3.87 5.039,7.867 7.6,11.773 0.689,1.051 1.593,1.96 2.366,2.959 0.38,0.487 0.685,1.033 1.089,1.655 z"
     id="path664"
     style="fill:#2d5016" />
  <path
     fill="#c1f7c4"
     d="m 1572.098,1387.745 c -2.513,1.907 -4.853,3.837 -7.354,5.531 -1.904,1.29 -3.996,2.31 -6.037,3.388 -0.814,0.43 -1.814,1.092 -2.551,0.914 -0.706,-0.171 -1.216,-1.27 -1.749,-2.006 -0.708,-0.976 -1.501,-1.931 -1.992,-3.015 -0.604,-1.333 0.32,-2.401 1.189,-3.232 1.801,-1.721 3.713,-3.329 5.607,-4.951 2.04,-1.746 4.55,-2.524 7.052,-3.286 0.29,-0.088 0.808,-0.018 0.979,0.183 1.448,1.71 2.851,3.459 4.238,5.22 0.259,0.33 0.382,0.765 0.618,1.254 z"
     id="path665"
     style="fill:#ffd5d5" />
  <path
     fill="#a1f7a7"
     d="m 1617.031,1451.215 c -0.421,-0.491 -0.7,-0.778 -0.936,-1.097 -1.655,-2.235 -3.302,-4.476 -4.951,-6.717 -1.995,-2.711 -3.964,-5.441 -5.993,-8.126 -1.235,-1.634 -2.613,-3.16 -3.835,-4.803 -1.874,-2.522 -3.704,-5.078 -5.484,-7.667 -1.309,-1.905 -2.402,-3.965 -3.788,-5.808 -1.158,-1.54 -2.726,-2.77 -3.888,-4.307 -1.667,-2.204 -3.106,-4.579 -4.69,-6.847 -0.639,-0.915 -1.448,-1.711 -2.107,-2.615 -1.033,-1.416 -1.972,-2.901 -3.01,-4.313 -1.294,-1.761 -2.664,-3.467 -3.954,-5.23 -0.144,-0.196 0.017,-0.614 0.036,-0.93 0.313,0.021 0.772,-0.083 0.917,0.084 1.363,1.576 2.685,3.189 3.995,4.811 1.225,1.517 2.441,3.043 3.625,4.592 1.671,2.186 3.355,4.365 4.949,6.606 1.494,2.099 2.828,4.312 4.323,6.409 2.093,2.935 4.287,5.799 6.408,8.715 1.763,2.424 3.508,4.862 5.217,7.324 1.188,1.712 2.244,3.519 3.469,5.203 0.979,1.346 2.208,2.511 3.175,3.864 1.867,2.612 3.629,5.299 5.434,7.955 0.099,0.146 0.172,0.35 0.311,0.424 0.932,0.497 1.001,1.27 0.777,2.473 z"
     id="path666"
     style="fill:#44aa00" />
  <path
     fill="#d7f7d9"
     d="m 1606.109,1462.569 c 2.709,-0.818 3.768,-2.836 4.242,-5.234 0.148,-0.746 0.446,-0.981 1.094,-0.88 2.31,0.361 4.004,-0.851 5.658,-2.175 0.178,-0.142 0.326,-0.325 0.515,-0.447 0.08,-0.051 0.231,0.01 0.582,0.033 0.21,2.773 0.468,5.572 0.587,8.377 0.018,0.428 -0.572,0.917 -0.948,1.314 -0.203,0.215 -0.701,0.224 -0.806,0.448 -1.053,2.249 -2.667,0.899 -4.043,0.604 -1.673,-0.359 -3.309,-0.898 -4.955,-1.378 -0.597,-0.173 -1.179,-0.403 -1.926,-0.662 z"
     id="path667"
     style="fill:#e9ddaf" />
  <path
     fill="#d7f7d9"
     d="m 1575.563,1389.683 c -1.753,1.527 -3.446,3.162 -5.305,4.578 -2.215,1.686 -4.5,3.307 -6.893,4.721 -1.703,1.006 -3.631,1.634 -5.473,2.395 -0.179,0.074 -0.651,-0.078 -0.658,-0.155 -0.025,-0.274 0,-0.684 0.172,-0.823 1.016,-0.798 2.079,-1.535 3.13,-2.287 2.952,-2.114 5.907,-4.225 8.859,-6.34 1.116,-0.8 2.224,-1.611 3.344,-2.403 0.117,-0.083 0.305,-0.123 0.448,-0.1 0.768,0.119 1.532,0.264 2.376,0.414 z"
     id="path668" />
  <path
     d="m 1618.965,1433.067 c 2.242,0.672 4.485,1.144 6.565,2.008 4.154,1.726 8.189,3.736 12.33,5.494 2.604,1.105 5.318,1.949 7.972,2.94 3.327,1.242 6.634,2.538 9.964,3.769 3.185,1.177 6.42,2.227 9.578,3.472 2.684,1.058 5.288,2.318 7.934,3.476 0.246,0.108 0.664,0.026 0.781,0.189 0.271,0.382 0.407,0.86 0.598,1.299 -0.388,0.12 -0.861,0.445 -1.15,0.326 -1.807,-0.747 -3.547,-1.661 -5.359,-2.394 -3.626,-1.465 -7.281,-2.858 -10.93,-4.264 -3.361,-1.295 -6.725,-2.581 -10.099,-3.844 -2.307,-0.864 -4.665,-1.601 -6.943,-2.536 -3.236,-1.328 -6.4,-2.83 -9.63,-4.174 -3.667,-1.526 -7.26,-3.274 -11.215,-4.004 -0.263,-0.049 -0.56,-0.158 -0.743,-0.339 -0.216,-0.213 -0.489,-0.576 -0.434,-0.799 0.059,-0.239 0.471,-0.39 0.781,-0.619 z"
     id="path669" />
  <path
     d="m 1631.846,1398.584 c 0.205,0.121 0.371,0.17 0.464,0.281 0.666,0.799 1.566,0.912 2.533,1.149 3.236,0.792 6.448,1.713 9.611,2.761 3.062,1.015 6.042,2.273 9.075,3.377 1.902,0.693 3.84,1.283 5.753,1.947 2.73,0.948 5.463,1.889 8.172,2.892 2.812,1.041 5.569,2.236 8.404,3.205 2.293,0.784 4.667,1.33 7.004,1.985 0.826,0.231 1.674,0.41 2.46,0.738 0.359,0.15 0.591,0.604 0.88,0.92 -0.462,0.184 -0.951,0.572 -1.382,0.515 -1.311,-0.173 -2.609,-0.482 -3.893,-0.812 -0.516,-0.133 -0.969,-0.495 -1.476,-0.686 -1.317,-0.498 -2.665,-0.918 -3.967,-1.452 -0.714,-0.293 -1.322,-0.86 -2.045,-1.115 -1.188,-0.419 -2.451,-0.621 -3.644,-1.03 -2.617,-0.896 -5.196,-1.902 -7.815,-2.792 -2.072,-0.704 -4.193,-1.262 -6.268,-1.957 -2.032,-0.68 -4.027,-1.469 -6.05,-2.175 -1.512,-0.528 -3.059,-0.956 -4.561,-1.509 -1.818,-0.669 -3.599,-1.439 -5.409,-2.131 -0.579,-0.221 -1.195,-0.359 -1.805,-0.486 -1.643,-0.343 -3.305,-0.61 -4.932,-1.015 -0.588,-0.146 -1.157,-0.535 -1.618,-0.944 -0.209,-0.185 -0.237,-0.714 -0.157,-1.041 0.059,-0.242 0.423,-0.41 0.666,-0.625 z"
     id="path670" />
  <path
     d="m 1682.054,1437.027 c -1.047,-0.192 -2.129,-0.274 -3.134,-0.595 -3.867,-1.235 -7.719,-2.516 -11.556,-3.84 -2.07,-0.715 -4.087,-1.584 -6.149,-2.326 -2.209,-0.795 -4.451,-1.501 -6.663,-2.288 -1.677,-0.596 -3.294,-1.389 -5.005,-1.847 -1.395,-0.374 -2.712,-0.767 -3.994,-1.491 -0.949,-0.536 -2.186,-0.559 -3.29,-0.828 -0.605,-0.147 -1.217,-0.289 -1.799,-0.504 -3.003,-1.111 -5.996,-2.25 -8.996,-3.37 -2.367,-0.883 -4.748,-1.726 -7.097,-2.655 -0.31,-0.123 -0.714,-0.725 -0.636,-0.965 0.187,-0.581 0.681,-0.747 1.349,-0.483 3.979,1.572 7.958,3.143 11.966,4.638 3.886,1.449 7.797,2.831 11.715,4.193 4.161,1.447 8.348,2.817 12.511,4.255 2.92,1.009 5.806,2.116 8.733,3.106 2.76,0.934 5.563,1.74 8.327,2.664 1.381,0.462 2.771,0.969 3.829,2.017 -0.036,0.107 -0.073,0.213 -0.111,0.319 z"
     id="path671" />
  <path
     d="m 1679.239,1361.83 c -0.114,1.88 -1.821,3.375 -2.984,3.628 -1.45,0.316 -2.434,-0.342 -3.028,-1.839 -0.418,-1.055 0.096,-2.541 1.063,-3.268 1.248,-0.938 2.633,-0.853 3.901,-0.299 0.51,0.223 0.708,1.164 1.048,1.778 z m -4.603,1.021 c 0.268,0.24 0.804,0.988 1.063,0.902 0.631,-0.21 1.219,-0.744 1.623,-1.295 0.095,-0.129 -0.627,-1.226 -0.94,-1.21 -0.691,0.034 -1.596,0.195 -1.746,1.603 z"
     id="path672" />
</g>

	</g>
  </g>
</svg>
